<svg  viewBox="0 0 24 24" fill="none" xmlns="http://www.w3.org/2000/svg">
<path fill-rule="evenodd" clip-rule="evenodd" d="M11 21C11 21.553 11.448 22 12 22C12.552 22 13 21.553 13 21V13H21C21.552 13 22 12.553 22 12C22 11.447 21.552 11 21 11H13V3C13 2.447 12.552 2 12 2C11.448 2 11 2.447 11 3V11H3C2.448 11 2 11.447 2 12C2 12.553 2.448 13 3 13H11V21Z" fill="white"/>
<mask id="mask0" mask-type="alpha" maskUnits="userSpaceOnUse" x="2" y="2" width="20" height="20">
<path fill-rule="evenodd" clip-rule="evenodd" d="M11 21C11 21.553 11.448 22 12 22C12.552 22 13 21.553 13 21V13H21C21.552 13 22 12.553 22 12C22 11.447 21.552 11 21 11H13V3C13 2.447 12.552 2 12 2C11.448 2 11 2.447 11 3V11H3C2.448 11 2 11.447 2 12C2 12.553 2.448 13 3 13H11V21Z" fill="white"/>
</mask>
<g mask="url(#mask0)">
<path fill-rule="evenodd" clip-rule="evenodd" d="M0 0H24V24H0V0Z" fill="white"/>
</g>
</svg>
